<svg width="24" height="24" viewBox="0 0 24 24" fill="none" xmlns="http://www.w3.org/2000/svg">
<g id="simple-icons:insomnia">
<path id="Vector" d="M12.1133 4.88167C13.6399 4.88218 15.1258 5.37343 16.3518 6.28289C17.5779 7.19236 18.4791 8.47188 18.9224 9.93261C19.3658 11.3933 19.3278 12.9579 18.8141 14.3954C18.3004 15.8329 17.3382 17.0672 16.0695 17.9161C14.8008 18.765 13.2927 19.1836 11.768 19.1101C10.2432 19.0365 8.78249 18.4748 7.60137 17.5077C6.42024 16.5406 5.58128 15.2194 5.20832 13.7392C4.83535 12.2589 4.94812 10.698 5.53 9.28667C5.76619 9.60817 6.06908 9.87482 6.41792 10.0684C6.76676 10.2619 7.1533 10.3778 7.55109 10.408C7.94887 10.4383 8.3485 10.3822 8.72259 10.2436C9.09668 10.105 9.43641 9.88725 9.7185 9.60516C10.0006 9.32307 10.2184 8.98335 10.3569 8.60926C10.4955 8.23516 10.5516 7.83554 10.5214 7.43776C10.4911 7.03997 10.3752 6.65342 10.1817 6.30458C9.98815 5.95574 9.7215 5.65286 9.4 5.41667C10.2605 5.06179 11.1825 4.87999 12.1133 4.88167ZM12 2C6.4775 2 2 6.4775 2 12C2 17.5225 6.4775 22 12 22C17.5225 22 22 17.5225 22 12C22 6.4775 17.5225 2 12 2ZM12 3.01667C16.9608 3.01667 20.9833 7.03917 20.9833 12C20.9833 16.9608 16.9608 20.9833 12 20.9833C7.03917 20.9833 3.01667 16.9608 3.01667 12C3.01667 7.03917 7.03917 3.01667 12 3.01667Z" fill="#CDE6F5"/>
</g>
</svg>
