<svg width="24" height="24" viewBox="0 0 24 24" fill="none" xmlns="http://www.w3.org/2000/svg">
<g id="Quality Icon">
<path id="Vector" d="M15 2C16.95 2 18.6042 2.67917 19.9625 4.0375C21.3208 5.39583 22 7.05 22 9H20C20 8.33333 19.8792 7.7125 19.6375 7.1375C19.3958 6.5625 19.0667 6.05 18.65 5.6L17.275 7.925C17.1083 8.19167 16.9292 8.48333 16.7375 8.8C16.5458 9.11667 16.3417 9.39167 16.125 9.625C15.8917 9.875 15.6 10 15.25 10C14.9 10 14.6 9.88333 14.35 9.65C14.1 9.41667 13.975 9.125 13.975 8.775C13.975 8.425 14.1 8.125 14.35 7.875C14.5833 7.64167 14.8625 7.43333 15.1875 7.25C15.5125 7.06667 15.8083 6.89167 16.075 6.725L18.4 5.35C17.95 4.93333 17.4375 4.60417 16.8625 4.3625C16.2875 4.12083 15.6667 4 15 4V2ZM12.075 22C10.675 22 9.3625 21.7333 8.1375 21.2C6.9125 20.6667 5.84583 19.9458 4.9375 19.0375C4.02917 18.1292 3.30833 17.0625 2.775 15.8375C2.24167 14.6125 1.975 13.3 1.975 11.9C1.975 9.46667 2.75 7.32083 4.3 5.4625C5.85 3.60417 7.825 2.45 10.225 2C9.925 3.65 10.0167 5.2625 10.5 6.8375C10.9833 8.4125 11.8167 9.79167 13 10.975C14.1833 12.1583 15.5625 12.9917 17.1375 13.475C18.7125 13.9583 20.325 14.05 21.975 13.75C21.5417 16.15 20.3917 18.125 18.525 19.675C16.6583 21.225 14.5083 22 12.075 22ZM12.075 20C13.5417 20 14.9 19.6333 16.15 18.9C17.4 18.1667 18.3833 17.1583 19.1 15.875C17.6667 15.7417 16.3083 15.3792 15.025 14.7875C13.7417 14.1958 12.5917 13.3917 11.575 12.375C10.5583 11.3583 9.75 10.2083 9.15 8.925C8.55 7.64167 8.19167 6.28333 8.075 4.85C6.79167 5.56667 5.7875 6.55417 5.0625 7.8125C4.3375 9.07083 3.975 10.4333 3.975 11.9C3.975 14.15 4.7625 16.0625 6.3375 17.6375C7.9125 19.2125 9.825 20 12.075 20Z" fill="#CDE6F5"/>
</g>
</svg>
